<?xml version="1.0" standalone="no"?>
<!DOCTYPE svg PUBLIC "-//W3C//DTD SVG 20010904//EN"
 "http://www.w3.org/TR/2001/REC-SVG-20010904/DTD/svg10.dtd">
<svg version="1.0" xmlns="http://www.w3.org/2000/svg"
 width="800.000000pt" height="800.000000pt" viewBox="0 0 800.000000 800.000000"
 preserveAspectRatio="xMidYMid meet">
<metadata>
Created by potrace 1.14, written by Peter Selinger 2001-2017
</metadata>
<g transform="translate(0.000000,800.000000) scale(0.100000,-0.100000)"
fill="#000000" stroke="none">
<path d="M1719 5998 c0 -7 -2 -22 -4 -33 -6 -30 -14 -110 -21 -205 -8 -125
-16 -155 -40 -153 -71 8 -119 10 -135 6 -17 -5 -38 -44 -37 -73 0 -8 -2 -35
-5 -60 -3 -25 -8 -94 -12 -155 -4 -60 -9 -111 -10 -113 -2 -2 -41 -3 -88 -3
-57 0 -88 -4 -95 -12 -6 -7 -13 -53 -16 -102 -3 -50 -8 -103 -11 -118 -3 -15
-7 -51 -9 -80 -2 -29 -6 -79 -10 -112 -10 -108 -18 -189 -22 -245 -2 -30 -7
-77 -10 -105 -4 -27 -8 -75 -9 -105 -4 -66 -14 -179 -21 -235 -3 -22 -7 -67
-10 -100 -4 -55 -9 -105 -19 -210 -10 -111 -18 -194 -20 -230 -3 -42 -12 -137
-21 -220 -3 -27 -7 -75 -10 -105 -2 -30 -7 -82 -10 -115 -3 -33 -7 -76 -8 -95
-4 -52 -17 -190 -21 -225 -3 -16 -7 -66 -10 -110 -3 -44 -8 -98 -12 -120 -7
-55 -12 -120 -19 -255 l-6 -115 1273 1 c739 0 1282 -3 1292 -9 11 -5 40 -29
65 -53 37 -35 134 -95 162 -100 3 0 12 -4 20 -7 83 -36 199 -47 298 -28 79 16
197 78 265 141 l60 55 1271 1 c699 1 1277 2 1285 3 10 1 12 18 7 84 -3 45 -8
93 -11 107 -3 14 -7 64 -10 112 -2 47 -6 97 -9 110 -3 13 -8 58 -11 101 -3 43
-7 93 -10 110 -5 41 -17 187 -21 252 -2 28 -5 66 -8 85 -3 19 -8 64 -10 100
-3 36 -10 117 -16 180 -7 63 -13 138 -15 165 -2 28 -7 75 -11 105 -3 30 -7 78
-9 105 -2 46 -7 103 -21 230 -3 28 -7 77 -9 110 -2 33 -7 87 -11 120 -4 33 -8
80 -9 105 -2 25 -6 70 -9 100 -3 30 -8 84 -10 120 -3 36 -8 79 -10 95 -3 17
-8 62 -11 100 -2 39 -7 81 -9 93 -3 13 -8 79 -11 146 -4 67 -7 129 -8 137 -6
34 -18 38 -103 37 -46 0 -87 1 -90 4 -2 3 -7 34 -9 69 -2 35 -7 89 -11 119 -4
30 -8 82 -8 116 -1 89 -12 97 -109 92 -85 -5 -90 -3 -94 52 -1 19 -5 58 -8 85
-15 112 -17 132 -20 185 -1 30 -3 61 -4 68 -1 11 -41 12 -203 9 -112 -2 -216
-7 -233 -10 -16 -3 -59 -9 -95 -12 -36 -3 -85 -8 -110 -10 -124 -12 -176 -18
-190 -21 -8 -2 -62 -13 -120 -24 -233 -46 -530 -134 -641 -190 -23 -12 -59
-28 -80 -35 -55 -20 -315 -171 -383 -223 -32 -25 -94 -80 -136 -124 -43 -43
-83 -78 -89 -78 -6 0 -35 24 -64 53 -153 153 -319 263 -598 395 -126 59 -399
148 -539 176 -14 3 -68 14 -120 25 -52 12 -119 24 -150 27 -30 3 -62 7 -70 9
-16 5 -56 11 -135 21 -27 3 -66 8 -85 11 -19 3 -144 7 -277 10 -197 4 -243 2
-244 -9z m518 -209 c32 -5 83 -11 113 -14 97 -11 114 -13 180 -29 36 -8 85
-17 109 -20 25 -3 92 -19 150 -35 59 -16 122 -33 141 -36 19 -4 53 -16 75 -26
22 -10 73 -27 114 -39 86 -25 398 -182 486 -245 75 -53 190 -159 247 -227 l43
-52 1 -1275 c1 -702 -1 -1279 -3 -1283 -2 -4 -16 0 -31 11 -226 154 -566 327
-840 427 -153 56 -326 109 -467 143 -137 33 -150 36 -211 46 -46 7 -80 13
-114 20 -47 10 -85 14 -189 20 -58 4 -107 8 -110 10 -9 5 -109 14 -178 16 -34
1 -67 5 -73 9 -8 5 -10 25 -6 61 3 30 7 83 9 119 4 64 11 147 24 265 3 33 7
78 8 100 1 22 6 69 10 105 5 36 9 83 10 105 2 48 14 174 21 230 3 22 7 67 9
100 2 33 7 87 10 120 4 33 8 85 10 115 2 30 6 78 9 105 9 81 17 166 21 234 3
35 7 82 11 105 3 22 7 66 9 96 1 30 6 80 10 110 4 30 7 62 7 70 -1 8 3 53 9
100 5 47 11 112 13 145 3 33 7 70 10 82 2 12 6 52 7 90 1 37 7 83 13 101 l10
33 133 -2 c73 -1 159 -6 190 -10z m3858 -19 c3 -45 16 -190 20 -213 5 -32 18
-183 20 -242 1 -27 5 -66 9 -85 4 -19 8 -62 10 -95 4 -60 23 -279 31 -345 12
-111 20 -206 30 -360 4 -63 9 -118 11 -121 2 -3 6 -37 9 -75 3 -38 8 -94 11
-124 4 -30 8 -71 9 -90 2 -36 14 -178 21 -240 2 -19 6 -75 9 -125 4 -49 10
-103 14 -120 4 -16 9 -61 10 -100 1 -38 5 -90 8 -115 3 -25 7 -61 7 -80 l1
-35 -65 -1 c-89 -2 -273 -15 -280 -19 -3 -2 -35 -6 -70 -10 -117 -11 -262 -36
-344 -59 -51 -14 -93 -23 -151 -32 -55 -10 -239 -65 -327 -100 -48 -19 -91
-34 -95 -34 -8 0 -150 -59 -231 -96 -29 -13 -55 -24 -58 -24 -21 0 -333 -167
-440 -236 -72 -46 -137 -84 -146 -84 -13 0 -14 149 -14 1278 l1 1277 22 30
c29 40 154 161 226 218 61 49 198 132 304 186 103 51 356 146 448 167 6 2 30
7 55 13 25 5 70 17 100 26 30 8 78 18 105 21 28 4 60 10 73 15 12 5 22 7 22 4
0 -2 15 1 33 6 17 5 55 12 82 14 28 3 64 7 80 10 17 2 64 7 105 11 41 3 76 7
77 8 2 1 60 2 130 2 l127 -1 1 -25z m-4115 -2784 c29 -5 99 -15 150 -22 19 -3
64 -12 100 -19 60 -13 112 -22 167 -30 11 -2 47 -11 80 -20 32 -10 72 -19 88
-22 36 -5 71 -15 150 -43 33 -12 69 -23 80 -24 19 -3 70 -22 225 -83 100 -40
310 -136 306 -140 -3 -3 -46 5 -221 42 -30 6 -93 14 -165 20 -36 3 -85 10
-110 16 -25 5 -63 11 -85 13 -22 2 -80 9 -130 16 -49 6 -106 13 -125 15 -19 2
-53 6 -75 10 -22 3 -60 7 -85 10 -25 2 -88 9 -140 15 -52 6 -122 13 -155 15
-33 3 -79 7 -103 10 -24 3 -75 8 -115 10 -40 3 -94 8 -122 11 -27 4 -91 8
-142 8 -51 1 -95 5 -99 9 -12 12 -5 127 11 178 6 19 15 19 248 14 133 -3 253
-7 267 -9z m4559 -15 c2 -14 4 -59 5 -100 l1 -74 -95 -3 c-146 -4 -416 -22
-460 -30 -14 -3 -72 -9 -130 -14 -120 -12 -166 -17 -230 -26 -25 -4 -65 -8
-89 -10 -25 -2 -55 -5 -67 -8 -12 -3 -55 -8 -95 -11 -86 -7 -138 -13 -148 -20
-7 -4 -47 -10 -146 -20 -27 -3 -66 -10 -85 -14 -19 -5 -56 -12 -81 -14 -25 -3
-72 -12 -105 -20 -78 -20 -144 -30 -144 -23 0 7 178 96 192 96 8 0 73 26 173
70 31 13 297 101 321 106 12 2 64 15 117 29 94 24 116 29 194 40 23 3 67 12
98 20 31 8 95 18 143 21 48 3 98 7 112 10 14 2 52 7 85 10 33 4 61 7 63 9 1 1
85 2 185 2 l183 0 3 -26z m-4719 -395 c35 -4 134 -14 225 -22 28 -2 64 -6 80
-8 94 -11 172 -19 190 -21 11 -1 45 -5 75 -9 30 -4 69 -9 85 -10 17 -2 53 -6
80 -10 28 -4 64 -9 80 -11 17 -3 39 -6 50 -9 11 -2 47 -7 80 -10 89 -11 123
-16 198 -32 38 -8 86 -14 107 -14 21 0 41 -4 44 -8 3 -5 -418 -9 -934 -9 -695
-1 -942 2 -947 10 -8 13 -5 156 4 170 5 9 498 4 583 -7z m4948 -83 l3 -92
-941 2 c-518 1 -943 4 -946 8 -2 4 27 10 64 14 37 4 81 9 97 11 17 2 53 6 80
9 28 4 66 10 85 15 19 5 44 9 55 9 42 -1 142 11 166 19 13 6 71 13 127 17 56
4 108 8 115 9 75 16 109 20 242 31 39 3 90 8 115 11 60 7 119 12 209 19 41 3
76 7 78 9 2 2 104 3 226 2 l222 -1 3 -92z"/>
</g>
</svg>
